 <svg  version="1.0" xmlns="http://www.w3.org/2000/svg"  width="261.000000pt" height="193.000000pt" viewBox="0 0 261.000000 193.000000"  preserveAspectRatio="xMidYMid meet">  <g transform="translate(0.000000,193.000000) scale(0.100000,-0.100000)" fill="#ff6347" stroke="none"> <path d="M1760 1730 c0 -22 -4 -40 -9 -40 -5 0 -11 -8 -14 -19 -2 -10 -36 -44 -76 -75 -39 -31 -71 -61 -71 -65 0 -11 31 -24 38 -16 3 3 0 5 -6 5 -36 0 33 52 73 54 13 1 35 29 29 37 -2 4 5 14 16 24 19 17 19 16 17 -23 0 -22 -4 -39 -8 -36 -16 9 -19 -17 -5 -32 20 -20 20 -38 1 -54 -9 -7 -14 -19 -11 -27 3 -8 2 -11 -3 -8 -5 3 -12 1 -16 -5 -3 -5 0 -10 7 -10 7 0 -1 -13 -18 -28 -17 -15 -34 -37 -38 -50 -4 -12 -11 -20 -16 -17 -4 3 -7 -2 -6 -11 1 -10 -39 -36 -119 -77 -95 -50 -133 -76 -187 -130 -76 -75 -65 -75 -129 0 -31 37 -102 84 -226 147 -51 27 -93 53 -93 59 0 31 -20 -15 -27 -63 -30 -194 103 -295 298 -229 59 20 72 22 90 10 15 -9 24 -10 32 -2 16 16 45 13 105 -9 71 -27 128 -25 195 5 61 28 81 52 99 119 9 36 9 59 -1 111 l-13 66 29 27 c55 50 80 114 89 228 7 87 -1 174 -17 174 -5 0 -9 -18 -9 -40z m-759 -487 c51 -29 59 -40 34 -49 -26 -10 -17 -23 26 -35 37 -12 39 -14 23 -26 -26 -19 -42 -16 -70 13 -22 21 -25 31 -20 62 5 27 4 33 -3 22 -19 -28 -12 -69 17 -98 23 -25 31 -28 59 -20 17 4 41 20 52 35 21 25 22 25 41 8 25 -23 25 -30 -2 -57 -53 -53 -139 -55 -193 -4 -18 17 -38 30 -43 28 -6 -2 -13 2 -17 7 -4 7 0 8 11 4 15 -5 16 -1 10 31 -7 34 8 106 21 106 3 0 27 -12 54 -27z m609 -3 c7 -18 10 -48 7 -73 -13 -96 -128 -141 -214 -84 -42 28 -48 46 -24 69 26 24 34 23 46 -4 21 -48 100 -49 125 -2 16 28 15 73 0 88 -7 7 -8 0 -4 -22 12 -60 -27 -100 -83 -86 -31 8 -29 20 5 27 15 4 34 11 42 16 13 9 12 12 -5 25 -11 8 -18 16 -15 19 11 9 95 57 101 57 4 0 12 -14 19 -30z"/> <path d="M758 1688 c-6 -150 20 -253 78 -311 27 -27 64 -36 64 -16 0 5 -4 8 -9 5 -14 -9 -42 30 -35 48 5 13 2 17 -12 14 -10 -2 -19 2 -20 7 0 6 -8 27 -18 48 -9 20 -16 54 -14 75 1 20 -2 55 -5 77 l-7 40 17 -35 c9 -19 16 -39 14 -44 -1 -5 5 -3 14 4 13 11 15 10 10 -3 -4 -8 -2 -18 4 -22 6 -3 11 0 11 7 1 8 6 6 15 -6 7 -10 18 -15 24 -11 6 3 11 -1 11 -9 0 -9 6 -15 13 -13 6 1 11 -4 10 -10 -4 -16 13 -17 22 -2 7 10 -42 59 -58 59 -24 0 -107 107 -107 138 0 12 -4 23 -10 27 -5 3 -10 -24 -12 -67z"/> <path d="M1263 1688 c-21 -26 -39 -73 -36 -90 6 -25 33 -22 33 3 0 11 5 17 10 14 6 -3 10 -2 10 3 0 6 9 8 20 5 26 -7 25 0 -4 43 -18 26 -26 31 -33 22z"/> <path d="M1105 1646 c-29 -49 -31 -66 -10 -66 8 0 15 5 15 11 0 6 7 9 15 6 8 -4 17 -2 20 3 4 6 1 10 -5 10 -6 0 -8 5 -5 10 4 7 16 1 30 -15 13 -14 27 -25 30 -25 21 0 -26 94 -52 104 -7 3 -24 -14 -38 -38z"/> <path d="M1378 1658 c-37 -50 -38 -53 -27 -89 5 -19 12 -52 15 -74 6 -43 14 -58 21 -37 3 6 9 12 13 12 7 0 175 77 189 86 2 2 -7 19 -19 38 -21 35 -22 35 -48 21 -15 -8 -37 -22 -49 -31 -14 -10 -23 -12 -23 -5 0 6 5 11 10 11 6 0 4 13 -5 30 -9 18 -21 28 -27 24 -6 -4 -8 -3 -5 4 8 12 -1 42 -13 42 -4 0 -19 -15 -32 -32z m26 -40 c-5 -8 -2 -9 10 -5 10 4 15 3 11 -3 -3 -6 0 -10 8 -10 8 0 14 -8 13 -17 -1 -13 5 -17 20 -16 29 3 40 -44 13 -52 -11 -4 -24 -3 -30 1 -7 4 -9 3 -6 -3 4 -6 -1 -13 -11 -16 -9 -2 -25 -8 -34 -12 -15 -6 -17 -2 -13 23 2 20 -2 32 -11 36 -20 8 -18 56 2 56 8 0 13 4 10 9 -4 5 0 12 6 14 19 8 20 8 12 -5z m134 -39 c-10 -5 -18 -15 -18 -21 0 -6 7 -5 17 3 14 12 16 12 11 -1 -2 -8 -13 -15 -24 -15 -23 0 -26 27 -4 37 24 10 37 9 18 -3z"/> <path d="M975 1600 c-8 -16 -15 -33 -15 -38 0 -9 128 -72 148 -72 6 0 12 -5 12 -11 0 -5 4 -8 9 -4 6 3 14 -2 19 -12 8 -13 12 -4 22 41 6 32 10 60 7 62 -2 3 -8 -11 -11 -31 -4 -20 -13 -38 -20 -41 -13 -5 -106 31 -106 42 0 3 12 3 26 0 15 -4 23 -3 20 3 -3 5 -1 11 6 13 9 3 9 6 0 12 -7 4 -12 2 -12 -3 0 -6 -7 -11 -15 -11 -18 0 -20 20 -2 20 12 1 -51 60 -65 60 -4 0 -14 -13 -23 -30z m65 -53 c0 -5 -10 -7 -22 -5 -13 2 -21 8 -18 13 3 6 8 9 13 8 4 -2 7 3 7 10 0 13 20 -12 20 -26z"/> <path d="M1300 1600 c0 -6 -4 -8 -10 -5 -5 3 -10 -3 -10 -14 0 -22 20 -30 21 -8 0 6 4 3 9 -8 8 -18 9 -17 9 7 1 15 -3 30 -9 33 -5 3 -10 1 -10 -5z"/> <path d="M803 1540 c0 -17 4 -26 7 -19 5 7 10 8 14 1 3 -6 2 -13 -4 -17 -5 -3 -10 -12 -10 -18 0 -7 6 -4 14 5 10 14 15 15 26 5 7 -7 0 6 -16 28 -15 22 -29 41 -29 43 -1 1 -2 -12 -2 -28z"/> <path d="M1669 1481 c-35 -36 -59 -54 -113 -86 -45 -27 -66 -46 -25 -25 11 7 27 9 35 6 8 -3 12 -2 9 3 -9 16 16 25 27 10 8 -11 9 -11 5 2 -4 11 6 25 26 40 18 12 38 32 46 42 14 19 14 20 29 1 14 -18 14 -18 8 -1 -3 10 -6 23 -6 28 0 15 -13 8 -41 -20z"/> <path d="M852 1463 c6 -8 13 -11 16 -9 2 3 25 -8 51 -25 l46 -31 -45 40 c-25 22 -53 40 -62 39 -13 -1 -14 -4 -6 -14z"/> <path d="M1113 1291 c1 -16 5 -17 24 -8 25 11 21 27 -7 27 -12 0 -18 -7 -17 -19z"/> <path d="M1327 1256 c-19 -15 -26 -28 -21 -39 3 -9 10 -14 15 -11 5 3 6 10 3 16 -4 6 4 19 17 29 13 10 22 20 19 22 -3 3 -18 -5 -33 -17z"/> <path d="M796 1133 c-5 -43 -2 -107 8 -174 35 -244 140 -424 374 -639 57 -52 110 -101 118 -109 13 -12 19 -10 42 11 15 14 39 36 55 48 15 13 27 27 27 32 0 14 -22 9 -39 -10 -9 -10 -30 -28 -47 -40 l-31 -21 -44 39 c-31 28 -39 40 -26 40 9 0 17 -4 17 -10 0 -5 4 -10 10 -10 14 0 6 43 -10 48 -8 3 -10 0 -6 -7 6 -9 0 -10 -20 -5 -21 5 -25 4 -19 -6 5 -9 4 -11 -3 -6 -7 4 -12 15 -12 24 0 9 -14 25 -31 34 -24 14 -29 22 -24 39 6 18 4 20 -14 14 -17 -5 -20 -3 -14 11 5 14 3 16 -11 11 -9 -4 -15 -3 -12 2 6 9 -64 76 -76 73 -4 -1 -5 5 -2 13 7 17 24 20 24 5 0 -5 5 -10 12 -10 6 0 4 7 -5 18 -22 24 -21 33 1 25 9 -3 -5 17 -33 46 -27 28 -50 51 -51 51 -1 0 2 -50 4 -64 1 -5 8 -3 15 3 11 8 18 6 32 -9 16 -18 16 -20 2 -20 -10 0 -17 5 -17 12 0 6 -3 8 -7 4 -5 -4 1 -14 11 -22 16 -11 17 -16 7 -27 -7 -6 -11 -7 -9 -2 1 6 -9 23 -24 38 -25 27 -43 67 -30 67 4 0 8 11 8 25 1 14 -1 25 -5 25 -8 0 -67 114 -81 155 -40 116 -53 174 -27 127 7 -12 16 -19 21 -15 4 4 4 1 1 -8 -3 -8 1 -31 9 -50 l15 -34 -6 51 c-4 41 -2 52 11 57 20 8 52 -3 37 -12 -5 -4 19 -15 55 -25 47 -14 64 -23 60 -33 -4 -10 -1 -11 14 -3 26 14 40 13 34 -3 -3 -8 10 -17 38 -24 24 -6 45 -10 47 -8 2 2 -8 7 -23 11 -44 11 -32 34 17 33 36 -1 38 -2 17 -9 -15 -5 0 -6 38 -3 43 4 62 2 62 -6 0 -6 5 -11 10 -11 17 0 6 25 -15 32 -12 5 -6 6 17 3 21 -2 43 1 50 8 7 7 29 14 48 15 19 2 36 7 38 12 2 4 13 6 25 3 16 -4 19 -2 8 5 -12 9 -12 11 0 15 26 8 -26 -4 -106 -24 -94 -25 -266 -30 -334 -10 -24 7 -61 24 -83 37 -30 19 -42 22 -58 14 -12 -6 -20 -7 -20 -1 0 5 -3 18 -7 28 -7 17 -6 17 11 0 10 -10 20 -16 23 -13 6 6 -29 46 -37 41 -3 -2 -6 4 -7 13 -2 21 -31 123 -37 129 -2 2 -7 -26 -10 -64z"/> <path d="M1803 1178 c-4 -7 -9 -24 -11 -38 -5 -37 -49 -108 -103 -165 -53 -56 -136 -110 -213 -137 -48 -18 -49 -19 -11 -13 44 8 104 36 153 72 28 21 35 23 49 11 9 -7 14 -8 10 -2 -4 7 0 15 9 18 9 4 14 9 11 13 -4 3 -14 0 -24 -8 -14 -11 -13 -9 2 13 19 26 54 41 39 17 -4 -8 1 -9 16 -4 19 6 22 4 17 -10 -4 -9 -7 -21 -7 -26 0 -6 -5 -7 -11 -4 -14 9 -49 -33 -42 -51 3 -8 10 -11 17 -7 6 4 5 -1 -3 -10 -11 -14 -16 -15 -29 -5 -13 11 -15 10 -10 -3 8 -20 -30 -59 -50 -52 -8 3 -10 -1 -6 -11 7 -18 13 -15 67 27 81 63 133 175 144 310 6 75 3 90 -14 65z m-38 -179 c-16 -17 -17 -22 -5 -29 8 -5 12 -11 9 -14 -3 -3 -15 4 -28 15 -18 17 -20 24 -10 35 7 8 18 13 26 10 7 -3 13 0 13 6 0 6 3 8 7 5 3 -4 -2 -16 -12 -28z"/> <path d="M1774 830 c-6 -6 -50 -30 -100 -55 -49 -25 -75 -42 -59 -39 17 4 36 11 42 17 7 5 24 7 39 4 18 -3 24 -1 20 9 -3 8 0 11 9 8 8 -3 11 -12 8 -20 -3 -8 -1 -14 5 -14 6 0 8 -10 4 -22 -4 -15 -2 -19 7 -13 7 4 10 16 8 26 -3 11 6 40 20 64 23 41 21 59 -3 35z"/> <path d="M1230 798 c46 -12 48 -12 95 0 36 9 32 10 -45 10 -71 0 -79 -2 -50 -10z"/> <path d="M1020 715 c28 -29 91 -65 70 -40 -7 8 -17 15 -22 15 -5 0 -19 11 -32 25 -13 14 -27 25 -31 25 -5 0 2 -11 15 -25z"/> <path d="M1666 694 c-27 -25 -55 -43 -62 -40 -8 3 -13 0 -11 -6 3 -14 -52 -29 -78 -22 -16 4 -17 3 -5 -5 12 -9 13 -11 1 -11 -8 0 -11 -3 -8 -7 7 -6 87 16 97 27 3 3 18 12 34 20 28 15 96 74 96 85 0 13 -19 1 -64 -41z"/> <path d="M1160 713 c0 -27 270 -58 285 -33 4 6 -22 10 -72 10 -71 1 -97 4 -185 26 -16 3 -28 2 -28 -3z"/> <path d="M1715 670 c-4 -11 -11 -17 -17 -14 -7 4 -8 2 -4 -5 4 -6 0 -14 -8 -17 -9 -3 -16 -12 -16 -20 0 -7 -6 -11 -14 -8 -8 3 -17 0 -21 -5 -3 -6 -11 -9 -16 -6 -5 4 -16 -1 -25 -9 -8 -9 -12 -16 -7 -16 5 0 14 5 21 12 9 9 12 9 12 1 0 -15 -36 -27 -51 -17 -8 4 -9 3 -5 -4 4 -7 2 -12 -5 -12 -6 0 -17 -7 -23 -16 -6 -8 -18 -16 -26 -18 -14 -3 -43 -13 -80 -30 -8 -3 8 -4 35 -2 28 3 73 16 101 30 56 27 158 122 167 155 7 27 -10 28 -18 1z"/> <path d="M1405 603 c-63 -7 -60 -18 3 -15 31 2 61 8 67 13 9 9 6 9 -70 2z"/> <path d="M1076 506 c8 -21 122 -98 137 -93 9 4 8 6 -2 6 -16 1 -90 58 -109 83 -16 21 -34 24 -26 4z"/> <path d="M1567 463 c-4 -3 -57 -6 -119 -6 -71 0 -89 -2 -48 -5 47 -3 59 -6 45 -12 -19 -8 -19 -9 3 -11 12 -1 27 -3 32 -4 6 -1 17 -3 25 -4 9 -1 -2 -16 -28 -40 -33 -31 -50 -39 -80 -39 -20 0 -37 4 -37 8 0 9 -102 50 -123 50 -14 -1 11 -17 33 -22 8 -2 34 -13 59 -25 24 -13 54 -23 67 -23 12 0 24 -6 27 -12 2 -8 20 2 48 27 62 56 123 125 112 125 -5 0 -13 -3 -16 -7z"/> </g> </svg> 